<?xml version="1.0" encoding="utf-8"?>
<!-- Generator: Adobe Illustrator 26.2.1, SVG Export Plug-In . SVG Version: 6.00 Build 0)  -->
<svg version="1.1" id="Layer_1" xmlns="http://www.w3.org/2000/svg" xmlns:xlink="http://www.w3.org/1999/xlink" x="0px" y="0px"
	 width="1200px" height="800px" viewBox="0 0 1200 800" style="enable-background:new 0 0 1200 800;" xml:space="preserve">
<style type="text/css">
	.st0{fill:#747276;}
	.st1{fill-rule:evenodd;clip-rule:evenodd;fill:#747276;}
	.st2{fill-rule:evenodd;clip-rule:evenodd;fill:#015086;}
	.st3{fill:#015086;}
</style>
<g>
	<path class="st0" d="M411.6,672.4l0.2,4.2c0,1.2,0.2,2,0.2,2.5l-0.7,0.2c-1.2-2.7-2.7-4.7-4.4-6.2c-1.7-1.2-3.9-2-6.4-2
		c-3.2,0-5.7,0.5-7.4,1.2c-2.5,1-4.7,3-6.4,5.7c-1.7,2.7-2.7,5.9-2.7,9.6c0,2.2,0.2,4.2,1,5.9c0.7,1.7,1.5,3.4,2.7,4.9
		c1.2,1.5,2.7,2.7,4.2,3.9c1,0.7,2.2,1.2,3.7,1.7c0.7,0.2,2,0.2,3.7,0.2c1,0,2.2,0,3.4-0.5c1.2-0.2,2.2-0.7,3-1.2
		c0.7-0.5,1-1,1.2-1.7c0.2-0.7,0.2-2,0.2-3.7c0-3.2-0.2-4.9-0.5-5.4c-0.5-0.5-1.7-0.7-3.9-1h-1h-0.5c0,0-0.2,0-0.5,0l-0.5-0.7
		c0,0,0-0.2,0.2-0.2c1-0.2,3-0.2,5.9-0.2c0.7,0,1.7,0,3.4,0h2.7h2.5c0.5,0,1,0,1.7,0c0.2,0,0.2,0,0.2,0s0,0,0,0.2c0,0.2,0,0.5,0,0.7
		c-0.7,0.2-1.2,0.2-1.7,0.2h-1.7c-0.5,0-1,0.2-1.5,0.5c-0.2,0.2-0.2,0.7-0.2,2v3.4c0,2.5,0,3.9-0.2,4.7c0,0.2-0.2,0.7-0.7,1
		c-0.2,0.2-1,0.7-2.2,1c-1.5,0.5-3,1-4.2,1.2c-2.2,0.5-4.7,0.5-6.9,0.5c-3.4,0-6.4-0.5-8.6-1.2c-2.2-1-4.2-2.2-5.9-3.7
		c-1.7-1.7-2.7-3.2-3.4-4.9c-1-2.5-1.5-4.9-1.5-7.4c0-3.2,0.7-6.2,2.5-9.1c1.7-3,4.4-5.4,7.9-7.4c2.5-1.2,6.2-2,10.6-2
		c3,0,5.7,0.2,7.4,0.7C408.9,671.1,410.3,671.6,411.6,672.4 M419.4,703.9c2.7-0.2,3.9-0.5,4.4-0.7c0.2,0,0.5-0.2,0.5-0.7v-0.2
		c0-0.5,0-2,0.2-4.9c0-0.7,0-1.5,0-2.2v-3.2v-3.7v-6.6v-4.7c0-2-0.2-3.2-0.5-3.7c-0.2-0.5-1.2-0.7-2.5-1c-1.5-0.2-2.2-0.2-2.2-0.5
		c-0.2,0-0.2-0.2-0.2-0.5c0,0,0-0.2,0-0.5c0.2-0.2,0.5-0.2,1.2-0.2c0,0,0.2,0,0.7,0c0.5,0,0.7,0,1.2,0h2.2h6.9c3.9,0,6.6,0.2,8.4,1
		c1.5,0.5,3,1.5,3.7,3c1,1.5,1.5,3,1.5,4.7c0,3.2-1.7,5.7-5.2,7.4c-0.5,0.2-1,0.5-1.5,0.7c0.5,1.2,1.5,2.7,2.5,4.7l3.4,5.9
		c1.2,2.2,2.2,3.4,2.7,3.9c0.5,0.5,1.2,1,2,1.2c0.7,0.2,2,0.7,3.7,1v0.5v0.5c-2.5,0-5.4,0-8.6,0c-0.2,0-0.5,0-1,0
		c-1.2-2.5-2.7-5.2-4.4-7.9l-3.9-7.1c-0.5-0.7-1-1.2-1.2-1.5c-0.2-0.2-0.7-0.2-1.5-0.2h-2.2H429c0,0.5,0,1.7,0,3.4v9.1
		c0,0.2,0,0.7,0.2,1.5c0.2,0.2,0.5,0.5,0.7,0.7c0.2,0.2,1.2,0.5,3,1l1,0.2c0.2,0.2,0.2,0.5,0.2,0.7c-0.5,0-0.7,0.2-1,0.2
		c-1.5,0-2.7,0-3.4,0c-0.2,0-0.7,0-0.7,0h-3.7h-3.4c-0.2,0-1,0-2.5,0h-0.5v-0.2C419.2,704.4,419.2,704.1,419.4,703.9 M429.5,686.4
		c0.5,0,0.7,0,1,0c1.2,0,2.7,0,4.4-0.5c1.2-0.2,2.2-0.5,3-1.2c0.7-0.5,1.2-1.2,1.7-2.2c0.5-1,0.7-2.2,0.7-3.2c0-1.2-0.2-2.5-1.2-3.9
		c-0.5-1-1.5-2-3-2.5c-1.5-0.7-3.2-1-4.9-1c-0.5,0-1,0-2,0c0,1,0,1.7,0,2.2l0.2,4.9v2C429.3,682.7,429.3,684.4,429.5,686.4
		 M467.7,670.7c0,0.2,0.2,0.5,0.2,0.7c0,0,0,0.2,0,0.5c-0.5,0.2-0.7,0.2-1.2,0.2c-0.2,0-0.2,0-0.7,0c-0.2,0-0.5,0-0.7,0
		c-0.7,0-1.5,0.2-2,0.5c-0.2,0.2-0.5,0.5-0.5,0.7l-0.2,3v13.3c0,4.9,0.2,7.9,0.5,9.1c0.2,1.2,0.7,2.2,1.5,3c0.7,0.7,1.7,1.5,3.2,2
		c1.5,0.5,2.7,0.7,4.2,0.7c3,0,5.4-0.5,6.9-1.2c1.7-0.7,2.7-2,3.4-3.7c0.7-1.5,1-3.9,1-6.9c0,0,0-0.7,0-2.2v-0.7c0-0.2,0-0.7,0-1.7
		c0-0.7,0-1.2,0-1.5l-0.5-7.6c-0.2-2.5-0.2-4.2-0.5-4.7c-0.2-0.5-0.5-0.7-0.7-1c-0.7-0.5-2-1-3.9-1.2c0-0.2-0.2-0.5-0.2-0.7
		c0.7,0,1.5,0,2,0c0.7,0,1.5,0,2.2,0c1.2,0,1.7,0,2,0h4.2h0.7v1c-2.2,0.2-3.4,0.5-3.9,1c-0.5,0.5-0.7,1-0.7,2.2c0,0.5,0,1.7,0,3.7
		l0.2,5.7v2.2v2.7c0,3.4,0,5.9-0.2,7.1c-0.2,1.7-0.7,3.2-1.2,4.2c-0.5,1-1.2,2-2.2,2.7c-1,0.7-2.2,1.5-3.9,2
		c-1.7,0.5-3.2,0.7-4.9,0.7c-2.5,0-4.4-0.2-5.4-0.5c-2-0.5-3.7-1.5-4.9-2.5c-1.2-1-2-2-2.5-3c-0.5-1.2-1-3.2-1-5.7v-2.7v-7.4v-5.9
		v-3.9c0-1,0-1.7-0.5-2.2c-0.2-0.2-0.5-0.5-0.7-0.5h-1.5c-1.2,0-2,0-2.2-0.2c0-0.2,0-0.2,0-0.5c0-0.2,0-0.2,0.2-0.5
		c0.2,0,0.5-0.2,0.7-0.2h0.7h1.7h4.2L467.7,670.7z M492.1,670.7c0.2,0,0.5,0,0.7,0c0.5,0,1.5,0,3,0c0.7,0,1.2,0,1.5,0
		c0.5,0,1.2,0,2.5-0.2l4.4-0.2c1.2,0,2.5-0.2,4.2-0.2c2.7,0,4.9,0.5,6.6,1.2s3,2,3.9,3.7c1,1.7,1.2,3.4,1.2,5.2c0,2.7-1,5.2-3,7.1
		c-2,2-4.7,3-7.9,3c-1,0-1.7,0-2.2-0.2c-0.7-0.2-1.2-0.5-2.2-1c-0.2-0.2-0.5-0.5-0.7-0.7l0.2-0.2c0.2,0,0.5,0,0.7,0.2
		c0.5,0.2,1.5,0.2,2.2,0.2c1.5,0,2.7-0.2,3.9-1c1.2-0.7,2.2-1.7,3-3c0.7-1.2,1-2.7,1-3.9c0-1.5-0.2-2.7-1-3.9
		c-0.7-1.2-1.5-2.5-2.7-3.2c-0.5-0.5-1.5-0.7-3-1.2c-1.2-0.2-2.2-0.5-3-0.5c-2.2,0-3.4,0.2-3.9,0.5v0.5v3v0.5c0,0.5,0,1.2,0,2.2
		c0,3.7,0,5.9,0.2,6.6v1.5l0.2,12.1c0,0.2,0,0.5,0,1c0,0.5,0,1,0,1.2c0,0.7,0,1.5,0.2,2c0.5,0,1.7,0.5,3.7,1c1,0.2,1.5,0.2,1.5,0.5
		c0.2,0,0.2,0.2,0.5,0.2c0,0.2-0.2,0.5-0.2,0.5s-0.2,0.2-0.7,0.2c-0.2,0-0.7,0-1.5-0.2c-1.5-0.2-2.7-0.2-3.7-0.2l-4.7,0.2h-2.7
		c-0.2,0-0.7,0-1.5,0v-0.7l3.4-0.7c0.5-0.2,1-0.2,1-0.5c0.2-0.2,0.2-0.7,0.2-1.5c0-0.2,0-0.5,0-1c0-0.2,0-1,0-1.5
		c0-2,0-6.6-0.2-13.3c0-3.2,0-6.4,0-9.8v-0.5c0-1.2-0.2-2-0.5-2.5c-0.7-0.5-2.2-1-4.9-1.5c0-0.2,0-0.2,0-0.5
		C491.8,671.1,491.8,670.9,492.1,670.7 M524.1,687.6c0-1.7,0.2-3.4,0.7-4.9c0.5-1.5,1.2-3,2.2-4.7c1-1.7,2.2-3,3.7-4.2
		c1.5-1,3.4-2,6.2-3c1.7-0.5,4.2-1,6.9-1c2,0,3.7,0.2,5.4,0.7c1.7,0.5,3.4,1.2,4.9,2c1.5,1,3,2.2,4.4,4.2c1,1.2,1.7,2.7,2.2,4.2
		c0.7,2,1,3.9,1,5.9c0,2.5-0.2,4.2-0.7,5.9c-0.5,1.5-1.2,3-2.2,4.7c-0.7,1.2-2.2,2.5-4.4,3.9c-1.2,1-3,2-4.9,2.5c-2,0.7-4.2,1-6.4,1
		c-2.5,0-4.4-0.2-6.4-0.7c-1.7-0.5-3.4-1.2-4.7-2c-1.2-0.7-2.5-2-3.7-3.4c-1.2-1.5-2.2-3.2-3-5.2
		C524.3,692.1,524.1,689.9,524.1,687.6 M542.5,704.4c1.5,0,3-0.2,4.7-0.7c1.7-0.5,3-1.2,4.2-2c1.2-1,2.2-2,3-3.2
		c0.7-1.2,1.2-3,1.7-4.7c0.5-2,0.7-3.9,0.7-5.9c0-2.5-0.2-4.9-1-7.1c-0.5-1.7-1.5-3.4-2.7-4.9c-1.2-1.5-2.7-2.5-4.4-3.2
		s-3.7-1.2-5.7-1.2c-1.7,0-3.2,0.2-4.7,0.7c-1.5,0.5-2.7,1.2-3.9,2c-1,0.7-2,2-2.7,3.4c-0.7,1.5-1.5,3.2-2,4.9s-0.7,3.4-0.7,4.9
		s0.2,3.2,0.7,4.9c0.5,2,1,3.4,1.7,4.9c0.7,1.5,1.7,2.5,3,3.7c1.2,1,2.5,2,3.7,2.5C539.3,704.1,540.8,704.4,542.5,704.4"/>
	<path class="st1" d="M578.5,704.6v-1.7c2.2-0.2,3.7-0.7,4.2-1.5c0.5-0.5,0.7-1.5,1-3.4l0.2-9.6l0.5-9.6c0-0.5,0-1,0-1
		c0-2.5-0.2-3.9-0.5-4.4s-1.5-0.7-3.4-1.2c-0.5,0-1-0.2-1.2-0.2c0-0.5,0-0.7,0-1.2v-0.7c0.7,0,1.5,0,2.2,0l7.9,0.2
		c0.2,0,0.5,0,0.7,0h1.2c0.2,0.2,0.7,0.7,1,1.5c0.7,1.2,1.5,3.2,2.7,5.7l0.2,0.7l4.2,9.1c0,0.2,0.2,0.5,0.5,1
		c0.2,0.5,0.5,1.2,0.7,1.7c0.2,0.5,0.5,1.2,1,2c0.2,0.7,0.5,1.2,1,2c0.2-0.5,0.5-1,0.7-1.5c0.7-1.7,1.5-3.2,2-4.4
		c1.2-2.5,2.7-6.2,4.7-11.1c0.2-0.7,0.7-2,1.5-3.7c0.7-1.5,1.2-2.5,1.2-2.5c0.2-0.2,0.5-0.2,1-0.2c0.2,0,0.5,0,0.7,0
		c1,0,2,0,3.4-0.2c2,0,3.4,0,4.4-0.2c1.2,0,1.7-0.2,2-0.2c0.2,0,0.5,0,0.7,0c0,0.2,0,0.5,0,0.5v0.7c0,0.2,0,0.5,0,0.7
		c-1.7,0.2-3,0.7-4.2,1.2c-0.7,0.2-1,0.7-1,1.2v0.5l0.5,8.1c0,0.7,0.2,4.4,0.5,11.1c0,1.5,0.2,3.4,0.2,5.7c0,0.2,0,0.5,0,0.7
		c0,0.5,0,0.7,0.2,0.7c0.2,0.2,1.7,0.7,4.9,1.5c0,0.2,0,0.5,0,0.7c0,0.5,0,0.7,0,1.2c-0.5,0-1.7,0-3.7-0.2c-2-0.2-3.7-0.2-5.4-0.2
		c-2.7,0-5.2,0-7.6,0.2c-0.2,0-0.7,0-1,0v-2c0.7-0.2,1.7-0.5,3-0.7c0.7-0.2,1.5-0.5,1.7-0.7s0.2-1.2,0.2-3c0-0.5,0-1.2,0-1.5
		c0-2-0.2-4.4-0.2-7.9l-0.2-8.6c0-1.2,0-2.2-0.2-2.7l-6.6,15.3c-0.2,0.2-0.5,1-0.7,1.5c-0.5,1-0.7,1.5-0.7,1.7
		c-1.5,3.2-2.2,5.9-3,7.6c-0.2,0.5-0.2,1-0.7,1.7h-2l-1.5-4.2c-0.5-1-1.2-2.7-2.2-4.9c-0.5-1.2-1-2.2-1.5-3.2
		c-0.2-0.2-0.2-0.5-0.2-0.7l-0.2-0.7v-0.2l-3.9-8.6l-2.5-5.2l-0.2,12.6l-0.2,8.1c0,1.5,0.2,2.2,0.7,3c0.5,0.5,1.7,1,3.2,1.5l1.2,0.2
		v2c-1,0-2.2,0-3.4-0.2c-1.2-0.2-2.7-0.2-4.7-0.2C583.4,704.4,581.7,704.4,578.5,704.6 M626.5,704.6h0.5c1.2,0,2.5,0,3.7-0.2l1-0.2
		c4.2,0.2,6.9,0.5,7.9,0.5c0-0.2,0-0.5,0-0.7c0-0.2,0-0.7,0-1.2c-1-0.2-1.7-0.2-2-0.2c-1.2,0-2-0.5-2.5-0.7c-0.2-0.2-0.5-0.5-0.5-1
		c0-0.2,0.2-1,0.5-2c1.2-3.4,2-5.4,2.5-6.2h10.1l2,5.2l1,2.7c0,0.2,0.2,0.5,0.2,0.7s0,0.5-0.2,0.5s-0.7,0.2-1.5,0.5l-3,0.7
		c0,0.5,0,1.2,0,1.7h1.2l4.4-0.2c0.7,0,1.7,0,3,0c1.2,0,2.7,0,4.2,0.2c1.5,0.2,3,0.2,4.4,0.2c0-0.2,0-0.5,0-0.5c0-0.2,0-0.7-0.2-1.2
		c-0.7-0.2-1.7-0.5-2.5-0.7c-0.7,0-1.2-0.2-1.5-0.5c-0.2,0-0.5-0.5-0.7-1.2c-0.7-1.5-1.2-2.5-1.5-3.4c-0.7-1.7-1.2-3-1.5-3.7
		c-0.5-1.5-1.2-3.2-2.2-5.4c-0.7-2.2-1.7-4.4-3-6.9l-4.7-11.1l-0.2-0.5h-1.2h-1.7l-6.4,16.5l-5.4,14c-0.5,0.7-0.7,1.2-1,1.5
		c-0.2,0.2-1.2,0.5-2.5,0.7c-1,0.2-1.5,0.2-1.7,0.5L626.5,704.6z M639,689.6l3.9-10.3c0.5,1.2,1.2,2.7,2,4.9c0.7,2.2,1.5,3.9,2,5.7
		h-0.7C645.7,689.6,643.2,689.6,639,689.6 M665.4,702.9c0,0.2,0,0.7,0,0.7s0,0.5,0,0.7h1.2c1,0,2,0,3.2-0.2l3.7-0.2c0.2,0,0.5,0,1,0
		c0.7,0,3,0.2,6.9,0.5h1c0,0,0.2,0,0.7,0c0-0.5,0-1.2,0-2c-1-0.5-2.2-0.7-3.7-1c-0.7-0.2-1.5-0.5-2-0.7l0.2-4.9v-5.9
		c0-0.7,0-1.2,0-1.7c0.7,0,1.5,0,1.7,0c1.2,0,2.2,0.2,2.7,0.5c0.2,0.2,1,1.2,2,3c2,3.7,3.2,6.4,3.9,8.4c0.2,0.7,0.7,1.7,1.5,3l1,1.7
		c0.2,0,0.7,0,1.2-0.2c1,0,1.7-0.2,2-0.2h2.7c0.7,0,1.5,0,2.2,0.2h1l1.5,0.2h0.5h0.7c0-0.2,0-0.5,0-0.7s0-0.5-0.2-0.7
		c-0.5-0.2-1-0.5-2-1c-1-0.5-1.7-0.7-2-1c-0.2-0.2-1-1.5-2-3.2l-4.2-6.9c-0.5-0.7-1-1.7-1.7-2.7c-0.2-0.5-0.7-1-0.7-1.2
		c2.5-0.7,4.2-2,5.4-3.4c1.2-1.5,1.7-3.2,1.7-4.9c0-2.5-1-4.7-3.2-6.4c-2.2-2-5.2-2.7-8.6-2.7c-2.2,0-4.4,0-6.6,0.2l-3.4,0.2h-1.5
		c0,0-0.7,0-2-0.2c-1.2,0-2,0-2.5,0c-0.7,0-1.5,0-2.5,0.2v0.2v1.7c0.5,0,1.5,0.2,3,0.2l1.5,0.2c0,1,0.2,3.4,0.2,7.1
		c0,1.7,0,3.4,0,5.4v1.5v2.5v3.2v5.9c0,1.5,0,2.2,0,2.5c0,0.2,0,0.5-0.2,0.7c-0.7,0.2-1.5,0.5-2.5,0.5
		C666.6,702.7,665.8,702.7,665.4,702.9 M677.4,685.7v-0.7c0-1.2,0-2.5,0-3.2v-3v-2.2v-3.7v-0.5c0.5,0,1.2-0.2,2.2-0.2
		c1.7,0,3,0.2,3.7,0.5c1,0.2,2,1,2.5,1.5c0.5,0.5,0.7,1.2,1.2,2.2c0.2,1,0.5,2,0.5,3.2c0,1.7-0.5,3.2-2,4.4c-1.2,1-3.4,1.7-6.4,1.7
		C678.9,685.7,678.4,685.7,677.4,685.7 M703.5,704.6c0.2,0,1.2,0,2.2-0.2c1.7-0.2,3.2-0.2,4.2-0.2h4.7c2.2,0.2,3.2,0.2,3.7,0.2
		c0.2,0,0.5,0,0.7,0c0,0,0.5,0,1,0c0.2,0,0.2,0,0.5,0c0-0.5,0-0.7,0-1c0-0.2,0-0.7,0-1.2c-1,0-1.5-0.2-1.5-0.2c-1,0-2-0.2-3-0.5
		c0-0.2-0.2-0.5-0.2-0.5v-1v-5.4v-3.7v-7.1c0-1.7,0-3.9,0-6.9c0-0.5,0-1.2,0-2c0-1,0-1.5,0.2-2c0.5-0.2,1.5-0.5,2.2-0.7
		c1-0.2,1.7-0.5,2.5-0.7c0-0.5,0-1,0-1.2c0-0.2,0-0.5,0-0.7c-0.2,0-1.2,0-2.5,0.2c-2.2,0-3.9,0.2-5.2,0.2c-0.2,0-0.7,0-1.7,0
		l-7.6-0.2v2.5c0.2,0,0.5,0,1,0c1.7,0,2.7,0.2,3.4,0.7c0,0.5,0.2,0.7,0.2,0.7v1.2l0.2,3v1.5v3.4c0,0,0,2-0.2,5.4v1.5v6.2v3.2
		c0,1-0.2,1.7-0.5,2.2c-0.5,0.2-1.5,0.5-2.5,1c-0.7,0.2-1.5,0.2-1.7,0.5v2H703.5z M745.6,670.9c-1.7-0.5-3-1-3.9-1.2
		c-1.7-0.2-3-0.5-3.7-0.5c-3.9,0-6.9,1-8.9,3c-2,2-3,4.4-3,7.1c0,1.5,0.2,3,1,4.4c0.7,1.5,1.7,2.7,3,3.7c1.2,1,3.4,2,6.9,3.2
		c3.2,1.2,5.2,2,6.2,2.7c1.2,1.2,1.7,2.5,1.7,3.7c0,1-0.2,2-1,3c-0.7,1-1.7,1.7-2.7,2c-1.2,0.5-2.2,0.5-3.2,0.5c-1,0-2-0.2-3-0.5
		c-1-0.2-1.7-0.7-2.5-1.5c-0.7-0.5-1.2-1.2-1.7-2.2c-0.2-0.5-0.7-1.7-1.7-3.7h-2.5v1c0,0.5,0,1.2,0,2.5c0,2.2,0.2,3.4,0.2,3.7v0.2
		c0,0.2,0.2,0.5,0.2,0.5c0.2,0.2,0.7,0.5,1.7,0.7l3.2,1c1.7,0.2,3.2,0.5,4.4,0.5c2,0,3.4-0.2,4.7-0.5c1.2-0.2,2.5-0.7,3.4-1.5
		c1.2-0.7,2-1.2,2.5-2c0.7-0.7,1.2-1.5,1.7-2.5c0.7-1.7,1-3.2,1-4.9c0-1.5-0.2-3-0.5-3.9c-0.5-1-1.2-2.2-2.2-3.2
		c-0.7-0.7-2-1.7-3.4-2.2c-1.5-0.7-3-1.2-3.9-1.5c-3.2-1-5.4-2-6.4-3c-1-1-1.5-2.2-1.5-3.2c0-1.2,0.5-2.5,1.5-3.4
		c1-1,2.5-1.5,4.2-1.5c2,0,3.4,0.7,4.7,2.2c0.7,0.7,1.5,2.5,2.2,4.7h0.2h2h0.2c0-0.5,0-0.7,0-1c0-1,0-2.5-0.2-4.2
		C745.9,672.4,745.9,671.4,745.6,670.9 M753.7,668.4c-0.2,0.2-0.2,1-0.7,2c-1,3.4-1.7,5.7-2.2,6.9c0.2,0.2,0.7,0.7,1.5,1
		c0.2,0,0.5-0.2,1-0.7c1.5-2,2.7-3.2,3.4-3.7c0.5-0.2,1.7-0.5,3.4-0.5c3,0,4.9,0,5.4,0c0.2,0,0.2,0,0.2,0.2l0.2,0.2
		c0,0.5,0.2,2.2,0.2,5.2l0.2,10.1c0,4.7,0,8.1-0.2,10.3c0,0.5-0.2,1-0.2,1.2c-0.7,0.2-2,0.7-3.9,1.2c-1,0.2-1.7,0.7-2.2,1.2v0.2v0.5
		c0,0.2,0,0.2,0,0.7c0.2,0,1,0,2,0c2.7-0.2,4.2-0.2,4.7-0.2c3.4,0,5.7,0,6.9,0.2s3,0.2,4.7,0.2c0.2,0,0.5,0,1,0c0-0.2,0-0.5,0-0.7
		c0-0.2,0-0.5-0.2-1.2c-0.5-0.2-1-0.2-1.5-0.5c-1.2-0.2-1.7-0.5-2-0.5c-0.7,0-1.2-0.2-1.5-0.2c-0.2-0.7-0.2-1.5-0.2-2.7v-3.4v-8.4
		v-7.9v-3.4c0-0.5,0-1,0.2-1.7c0.7,0,1.5,0,2,0c3.4,0,5.2,0,5.7,0.2c0.2,0,0.5,0.2,0.7,0.5c0.2,0.2,0.5,1,1,2.2c0.5,1.2,1,2.2,1.5,3
		c0.5,0,1.2-0.2,2-0.5c0-0.2,0-0.7,0-1.2v-1.5v-2.5c0-2.5,0-4.4,0-5.7c-0.2,0-0.5,0-0.7,0h-1.2c0,0.2-0.2,0.5-0.2,0.7
		c-0.2,0.7-0.5,1.2-0.7,1.2l-1.5,0.2h-8.1H768h-3.2h-0.5c-1,0-2.2,0-3.7,0c-2.2,0-3.4,0-3.7,0c-0.2-0.2-0.7-0.7-1.2-1.7
		c0,0,0-0.2-0.2-0.5h-1.7V668.4z M783.8,704.6h0.5c1.2,0,2.5,0,3.7-0.2l1-0.2c4.2,0.2,6.9,0.5,7.9,0.5c0-0.2,0-0.5,0-0.7
		c0-0.2,0-0.7,0-1.2c-1-0.2-1.7-0.2-2-0.2c-1.2,0-2-0.5-2.5-0.7c-0.2-0.2-0.2-0.5-0.2-1c0-0.2,0.2-1,0.5-2c1.2-3.4,2-5.4,2.5-6.2
		h10.1l2.2,5.2l1,2.7c0,0.2,0.2,0.5,0.2,0.7s0,0.5-0.2,0.5s-0.7,0.2-1.5,0.5l-3,0.7c0,0.5,0,1.2,0,1.7h1.2l4.4-0.2c0.7,0,1.7,0,3,0
		c1.2,0,2.7,0,4.2,0.2c1.5,0.2,3,0.2,4.4,0.2c0-0.2,0-0.5,0-0.5c0-0.2,0-0.7-0.2-1.2c-0.7-0.2-1.7-0.5-2.5-0.7
		c-0.7,0-1.2-0.2-1.5-0.5c-0.2,0-0.5-0.5-0.7-1.2c-0.7-1.5-1.2-2.5-1.5-3.4c-0.7-1.7-1.2-3-1.5-3.7c-0.5-1.5-1.2-3.2-2.2-5.4
		c-0.7-2.2-1.7-4.4-3-6.9l-4.7-11.1l-0.2-0.5H802h-1.7l-6.4,16.5l-5.4,14c-0.5,0.7-0.7,1.2-1,1.5c-0.2,0.2-1.2,0.5-2.5,0.7
		c-0.7,0.2-1.5,0.2-1.7,0.5L783.8,704.6z M796.3,689.6l3.9-10.3c0.5,1.2,1.2,2.7,2,4.9s1.5,3.9,2,5.7h-0.7
		C803,689.6,800.5,689.6,796.3,689.6"/>
	<rect x="89.6" y="631.3" class="st1" width="1020.8" height="2.5"/>
	<path class="st2" d="M679.9,230c7.6-2.7,43.1-5.7,43.1,16c0,6.6-4.7,11.1-11.6,11.3c-15.3,0.2-9.1-17.7-9.6-17.7
		c-36.7,0-21.9,78.8-20.4,91.1c-0.2,9.8-6.2,13-13.3,13.3c-6.4,0.2-9.8-2.7-11.6-7.9c-2.7-7.1-3.2-77.3,32.7-100.7
		c-9.8,0-39.1,19.4-51.9,58.6c0.7,1.7,1.2,21.4,0.2,29c-0.2,10.3-3,17.2-12.6,17.2c-7.9,0-13.3-5.7-12.3-17.2
		c1.7-20.7,9.1-81-11.8-90.8c-22.4,8.4-11.6,85.7-11.6,90.8c0.2,8.1-1.5,17.2-13,17.2c-12.6,0-12.3-8.1-12.6-17.5
		c0-8.1,0.5-22.2,1.2-28.8c-17.2-41.4-42.1-58.6-51.4-58.6c35.9,23.4,35,93.5,32.2,100.9c-1.7,5.2-5.2,8.1-11.6,7.9
		c-7.1-0.5-13-4.2-13.3-13.5c1.2-12.1,16-90.8-20.7-90.8c-0.5,0,5.9,18-9.6,17.7c-6.9-0.2-11.6-4.7-11.6-11.3
		c0-21.7,35.4-19,43.1-16c18,6.6,34.7,25.6,44.3,48.2c3.9-23.4,17.5-50.5,34.5-53.4c17,2.7,30,30,34.7,52.9
		C644.7,256.9,657.2,240.1,679.9,230"/>
	<path class="st2" d="M523.1,359c0-6.2,5.2-11.1,11.1-11.1c6.2,0,11.1,4.9,11.1,11.1s-5.2,11.1-11.1,11.1
		C528,370.3,523.1,365.4,523.1,359"/>
	<path class="st2" d="M564.4,356.3c0-6.2,4.9-11.1,11.1-11.1c6.2,0,11.1,4.9,11.1,11.1c0,6.2-4.9,11.1-11.1,11.1
		C569.4,367.6,564.4,362.7,564.4,356.3"/>
	<path class="st2" d="M614.4,355.3c0-6.2,5.2-11.1,11.1-11.1c6.2,0,11.1,4.9,11.1,11.1c0,6.2-5.2,11.1-11.1,11.1
		C619.6,366.2,614.4,361.2,614.4,355.3"/>
	<path class="st2" d="M657,358.5c0-6.2,4.9-11.1,11.1-11.1s11.1,4.9,11.1,11.1c0,6.2-5.2,11.1-11.1,11.1
		C661.9,369.8,657,364.7,657,358.5"/>
	<path class="st2" d="M712.4,487c-72.4,6.2-92.1-66.2-96-94c-5.7,8.9-9.8,18.7-12.6,26.3c11.3,29.8,18,65-2.7,68.9v-6.2
		c2.7-0.7,8.9-3.9,7.4-16c0,0-2.2-16.7-6.9-34.5c0,0,0-1.2-0.5-3.2v-16.5c5.7-13.5,11.8-25.4,15-31.8c0.2-0.7,0.7-1.7,1.2-2.2
		l-0.2-0.2l0.2-0.2c0,0.2-0.2,0.2-0.2,0.2c5.7-8.4,21.7-8.1,21.7,9.6c0,45.8,19.9,89.4,49.5,91.8c-20.9-11.3-34.2-73.6-34.2-91.1
		c-0.5-19,28.1-19.9,27.6,3.2c-0.2,21.9-7.9,84.4,29.3,88.6c0.7-4.2,4.2-7.1,8.6-7.1c2.7,0,5.2,1.2,6.6,3.2
		c22.2-14.5,11.6-33.5,3.2-33.7c-2.7-0.2-6.6,2.5-6.6,6.4c0.7,7.6,11.3,5.7,11.1,6.2c-2.2,3.7-6.2,5.7-12.6,4.7
		c-22.2-8.6,6.2-48,30.5-11.8c-1-28.1-51.7-37.4-51.7-9.6c-13.5-8.1-0.7-27.3,22.2-25.6c-13.5-11.1-17.2-22.4-15.5-28.1
		c1.5-7.4,8.6-11.1,13.8-10.1c9.8,2,15,17.7,2.2,20.4c9.4-24.4-18.2-16.2-8.6-0.7c13.5,21.4,38.4,19,43.3,50.5
		c7.1-18.2-5.4-45.8-21.7-68.9c-11.1-15.8-16-29.3-14.5-35.7c0.7-3.7,5.2-7.1,9.6-7.6c4.2,0,8.4,3,8.6,7.1c1.2,4.2-2,10.1-7.6,10.3
		c8.1-15.5-7.1-13.5-5.7-4.2c1.2,14,47,59.3,39.1,93.5c0.2-0.7,1.2-3.4,2.2-5.9c8.4-19.4-3.9-40.9-8.4-66.5
		c0.2-10.8,13.8-13.5,20.4-5.4c6.4,6.6,1.7,16.5-2.5,15.3c1.7-6.9,1.2-10.1-1.7-14c-5.2-4.4-13,0.2-11.3,5.7
		c1.7,9.8,11.6,31,11.1,51.9c6.4-12.1,13-20.9,24.4-19.9c-20.4,3.7-14.3,75.3-71.6,83.2c-1,3.7-4.4,6.4-8.6,6.4
		c-2.7,0-4.9-1.2-6.6-3.2v-0.2C713.1,487,713.1,487,712.4,487 M601.4,488.2l-0.2,0.2c-22.6-3.2-13.5-38.6-2-68.9
		c-2.7-8.1-7.4-19.2-14-28.1c-3.2,25.8-21.9,103.4-97,96.2c-0.5-0.2-1.2-0.2-1.7-0.2v0.2c-1.7,1.7-4.2,3.2-6.6,3.2
		c-3.9,0-7.4-2.7-8.6-6.4c-57.4-8.1-51-79.3-71.4-83.2c11.1-1,18,7.9,24.1,19.9c-0.5-20.9,9.6-42.1,11.3-51.9
		c1.5-5.7-6.4-10.1-11.3-5.7c-3,3.9-3.7,7.1-1.7,14c-4.2,1.2-9.1-8.6-2.7-15.3c6.6-8.1,20.4-5.4,20.4,5.4
		c-4.2,25.4-16.7,46.8-8.1,66.5c1,2.5,1.7,5.2,2.2,5.9c-8.1-34.2,37.7-79.3,39.1-93.5c1.2-9.6-14-11.3-5.9,4.2
		c-5.7-0.2-8.6-6.4-7.4-10.3c0.2-4.2,4.2-7.1,8.6-7.1c4.7,0.5,8.9,4.2,9.6,7.6c1.7,6.4-3.4,19.9-14.5,35.7
		c-16.2,22.9-28.8,50.5-21.4,68.9c4.7-31.8,29.8-29,43.1-50.7c9.6-15.5-17.7-23.4-8.6,0.7c-12.8-2.7-7.6-18.5,2.2-20.4
		c5.2-1,12.3,2.7,13.5,10.1c1.7,5.7-2.2,17-15.5,28.1c22.9-1.7,35.4,17.5,22.2,25.6c0.2-27.8-50.7-18.5-51.7,9.6
		c24.1-36.2,52.7,3.2,30.5,11.8c-6.4,1-10.3-0.7-12.6-4.7c-0.2-0.5,10.3,1.5,11.1-6.2c-0.2-3.9-4.2-6.6-6.6-6.4
		c-8.4,0.2-19,19.2,3.2,33.7c1.7-1.7,4.2-3.2,6.6-3.2c4.2,0,7.9,3.2,8.6,7.4c0.2-0.2,0.2,0.2,0.7,0c37.9-3.2,30.3-66.5,29.8-88.6
		c-0.5-23.4,28.1-22.4,27.8-3.2c0,17.5-13,79.8-34.2,91.1c29.5-2.2,49.7-45.8,49.7-91.8c0-17.7,16-18,21.4-9.6
		c4.2,5.7,11.1,18.7,17.5,34.5l0.2-0.7v16.5c-0.2-0.5-0.2-1-0.2-1.5c-0.7,2.7-1.5,4.7-1.5,4.7c-4.7,17.7-5.7,34.5-5.7,34.5
		c-0.7,4.9-0.5,15.5,7.1,16h0.2v5.4H601.4z"/>
	<polygon class="st2" points="595.2,111.6 585.6,104.7 597.7,104.7 601.4,93.7 605,104.7 616.9,104.7 607.3,111.6 611,122.7 
		601.4,115.8 591.5,122.7 	"/>
	<polygon class="st2" points="595.2,187.4 585.6,180.5 597.7,180.5 601.4,169.2 605,180.5 616.9,180.5 607.3,187.4 611,198.5 
		601.4,191.6 591.5,198.5 	"/>
	<polygon class="st2" points="555.1,116.1 545.5,109.2 557.3,109.2 561,97.8 564.9,109.2 576.5,109.2 567.1,116.1 570.6,127.1 
		561,120.2 551.4,127.1 	"/>
	<polygon class="st2" points="555.1,184 545.5,177.1 557.3,177.1 561,166 564.9,177.1 576.5,177.1 567.1,184 570.6,195.1 561,188.2 
		551.4,195.1 	"/>
	<polygon class="st2" points="517.2,125.7 507.6,118.8 519.4,118.8 523.1,107.7 527,118.8 538.8,118.8 529.2,125.7 532.7,136.7 
		523.1,129.8 513.5,136.7 	"/>
	<polygon class="st2" points="517.2,174.6 507.6,167.7 519.4,167.7 523.1,156.7 527,167.7 538.8,167.7 529.2,174.6 532.7,185.7 
		523.1,178.8 513.5,185.7 	"/>
	<polygon class="st2" points="635.6,116.1 626,109.2 637.8,109.2 641.5,97.8 645.2,109.2 657,109.2 647.4,116.1 651.1,127.1 
		641.5,120.2 631.9,127.1 	"/>
	<polygon class="st2" points="635.6,184 626,177.1 637.8,177.1 641.5,166 645.2,177.1 657,177.1 647.4,184 651.1,195.1 641.5,188.2 
		631.9,195.1 	"/>
	<polygon class="st2" points="673.5,125.7 663.9,118.8 675.7,118.8 679.4,107.7 683.1,118.8 694.9,118.8 685.3,125.7 689,136.7 
		679.4,129.8 669.8,136.7 	"/>
	<polygon class="st2" points="673.5,174.6 663.9,167.7 675.7,167.7 679.4,156.7 683.1,167.7 694.9,167.7 685.3,174.6 689,185.7 
		679.4,178.8 669.8,185.7 	"/>
	<polygon class="st2" points="702,150.3 692.4,143.4 704.5,143.4 708.2,132.3 711.9,143.4 723.7,143.4 714.1,150.3 717.8,161.3 
		708.2,154.7 698.3,161.3 	"/>
	<polygon class="st2" points="488.4,150.3 478.8,143.4 490.8,143.4 494.5,132.3 498.2,143.4 510,143.4 500.4,150.3 504.1,161.3 
		494.5,154.7 484.7,161.3 	"/>
	<path class="st2" d="M615.1,588.9l0.2-3.4c3.9-0.5,6.6-1.2,7.6-2.5c0.7-0.7,1.2-2.7,1.7-6.2l0.7-17.2l0.7-17.7c0-1,0-1.7,0-2
		c0-4.7-0.2-7.1-0.7-7.9c-0.5-0.7-2.7-1.5-6.2-2c-1-0.2-1.7-0.2-2.2-0.5c0-0.7,0-1.5,0-2v-1.5c1.2,0,2.7-0.2,4.2-0.2l14.3,0.5
		c0.2,0,0.7,0,1.2,0h2.2c0.5,0.7,1.2,1.5,1.7,2.7c1.2,2.5,2.7,5.9,4.7,10.3l0.5,1.2l7.6,16.5c0.2,0.5,0.5,1,0.7,1.7
		c0.5,1.2,1,2.2,1.5,3.4c0.5,1,1,2.2,1.7,3.4c0.5,1.2,1.2,2.5,1.5,3.4c0.5-0.7,1-1.7,1.2-2.7c1.2-3,2.5-5.7,3.7-8.1
		c2.2-4.4,5.2-11.1,8.6-20.2c0.5-1.5,1.5-3.7,3-6.6c1.2-3,2-4.4,2.2-4.7c0.2-0.2,1-0.5,1.7-0.5c0.2,0,0.7,0,1.5,0
		c1.7,0,3.7-0.2,6.2-0.2c3.4,0,6.2-0.2,8.1-0.2c2-0.2,3.2-0.2,3.4-0.2c0.2,0,0.7,0,1.2,0c0,0.5,0,0.7,0,1v1.5c0,0.2,0,0.7,0,1.2
		c-3,0.5-5.7,1.2-7.4,2c-1.5,0.7-2,1.5-2,2.5v0.7l0.7,15c0,1.5,0.2,8.1,0.7,20.4c0,2.7,0.2,6.2,0.7,10.3c0,0.5,0,1,0,1.2
		c0,0.7,0.2,1.2,0.5,1.5c0.2,0.2,3.2,1.2,8.9,2.7c0,0.5,0,1,0,1.2c0,0.7,0,1.5,0,2c-0.7,0-3.2-0.2-6.6-0.5c-3.4-0.2-6.9-0.5-9.8-0.5
		c-4.7,0-9.4,0.2-13.8,0.5c-0.5,0-1.2,0-1.7,0.2v-3.4c1.2-0.5,3.2-1,5.4-1.2c1.5-0.2,2.5-0.7,3-1.2c0.5-0.5,0.7-2.5,0.7-5.2
		c0-1,0-2,0-2.7c-0.2-3.4-0.2-8.1-0.2-14.3l-0.7-17.2c0-2.5-0.2-4.2-0.2-5.2L665.8,566c-0.2,0.7-0.7,1.7-1.2,2.7
		c-0.7,1.5-1.2,2.7-1.5,3.2c-2.5,5.9-4.2,10.6-5.2,13.8c-0.2,0.7-0.7,2-1.2,3.2H653l-2.7-7.4c-0.7-2-2.2-4.9-3.9-8.9
		c-1-2.2-2-4.2-2.7-5.7c-0.2-0.5-0.5-1-0.7-1.2l-0.5-1.2c0-0.2,0-0.2-0.2-0.5l-7.4-15.8l-4.4-9.6l-0.2,23.1l-0.2,15
		c0,2.5,0.5,4.2,1.5,5.2c1,1,3,2,5.9,2.7l2.5,0.5v3.4c-2,0-3.9-0.2-6.2-0.5s-4.9-0.5-8.6-0.5C624,588.7,620.8,588.7,615.1,588.9"/>
	<path class="st2" d="M702.8,588.9v-3.4c0.5-0.2,1.7-0.5,3.2-0.7c2.5-0.5,3.9-1,4.4-1.2c0.5-0.5,1.2-1.2,2-2.7l9.8-25.8l11.6-30.3
		h3.2h2.2l0.5,1l8.4,20.2c2,4.2,3.7,8.4,5.2,12.3c1.5,3.9,3,7.4,3.9,9.8c0.7,1.5,1.5,3.9,2.7,6.9c0.5,1.7,1.5,3.7,2.7,6.2
		c0.7,1.2,1.2,2.2,1.5,2.5c0.5,0.5,1.5,0.7,3,1c1.2,0.2,2.7,0.5,4.2,1.2c0.2,1,0.2,2,0.2,2.5c0,0.2,0,0.5,0,1
		c-2.5,0-5.2-0.2-7.9-0.2c-3-0.2-5.4-0.2-7.9-0.2c-2.5,0-4.4,0-5.7,0l-8.4,0.5h-2.5c0-1.2,0-2.2,0.2-3.2l5.4-1.2
		c1.7-0.5,2.5-0.7,2.7-1c0.2-0.2,0.5-0.7,0.5-1.2s0-0.7-0.2-1.2l-2-4.7l-3.9-9.6h-18.7c-0.7,1.5-2.2,5.4-4.2,11.3
		c-0.7,1.7-1,3-1,3.4c0,0.7,0.2,1.5,0.7,1.7c0.7,0.7,2.2,1,4.4,1.2c0.2,0,1.5,0.2,3.4,0.5c0,1.2,0,2,0,2.5s0,0.7,0,1.2
		c-2,0-6.9-0.2-14.5-0.7l-2,0.2c-2.5,0.5-4.7,0.5-6.9,0.5L702.8,588.9L702.8,588.9z M725.7,561.6c7.6,0,12.1,0.2,13.5,0.2h1.2
		c-1-3-2.2-6.2-3.7-10.1s-3-6.9-3.7-8.9L725.7,561.6z"/>
	<path class="st2" d="M773.2,586c0.7-0.5,2.2-0.7,3.7-1c1.7-0.2,3.2-0.5,4.4-1c0.2-0.7,0.2-1.2,0.2-1.5c0-0.5,0-2,0-4.7V567l0.2-5.9
		v-4.4V554c0-3.4,0.2-6.9,0.2-9.8c0-6.6,0-11.1-0.2-13l-3-0.5c-2.7-0.2-4.4-0.2-5.2-0.5v-3l0.2-0.5c1.7-0.2,3.2-0.5,4.4-0.5
		c0.7,0,2.2,0,4.4,0c2.5,0.2,3.7,0.2,3.7,0.2l2.7-0.2l6.2-0.2c3.7-0.2,7.9-0.5,12.1-0.5c6.6,0,12.1,1.7,16,5.2
		c3.9,3.4,5.9,7.4,5.9,11.6c0,3.2-1,6.2-3.2,8.9c-2.2,2.7-5.4,4.7-9.8,6.2c0.5,0.7,1,1.5,1.5,2.5c1.5,2,2.5,3.7,3.2,4.9l7.9,12.6
		c2,3.4,3.2,5.4,3.9,5.9c0.5,0.5,1.7,1.2,3.7,2c1.5,0.5,2.5,1,3.4,1.7c0.2,0.5,0.2,1,0.2,1.5c0,0.2,0,0.7,0,1.2h-1.2h-1l-2.5-0.2h-2
		c-1-0.2-2.2-0.2-3.9-0.2h-4.9c-0.5,0-1.5,0-3.4,0.2c-1,0-1.5,0.2-2,0.2l-1.7-3.2c-1.5-2.5-2.2-4.2-3-5.4c-1.5-3.2-3.9-8.1-7.4-15
		c-1.7-3.2-2.7-4.9-3.4-5.4c-1-0.7-2.7-1-4.9-1c-0.7,0-1.7,0-3.2,0c0,1-0.2,2-0.2,3.4l0.2,10.8l-0.2,9.1c1,0.5,2.2,1,3.7,1.2
		c2.5,0.5,4.7,1.2,6.4,1.7c0,1.5,0,2.7-0.2,3.7c-0.5,0-1,0-1.2,0h-2c-6.9-0.5-11.1-1-12.6-1c-0.7,0-1.5,0-1.7,0l-6.6,0.5
		c-2,0.2-3.9,0.2-5.7,0.2h-2c0-0.7,0-1.2,0-1.5C773.2,587.2,773.2,586.7,773.2,586 M795.1,554.5c1.5,0,2.7,0,3.4,0
		c5.4,0,9.4-1,11.8-3c2.2-2,3.4-4.7,3.4-7.9c0-2-0.2-3.9-0.7-5.7c-0.5-1.7-1.2-3.2-2.2-3.9c-1.2-1.2-2.7-2.2-4.7-3
		c-1.5-0.5-3.7-0.7-6.9-0.7c-1.5,0-2.7,0-3.9,0.2v1v6.6l-0.2,3.9v5.4c0,1.5,0,3.4-0.2,5.9v1H795.1z"/>
	<path class="st2" d="M842.3,589.2v-3.4c0.7-0.2,1.7-0.5,3.2-0.7c2-0.5,3.7-1,4.7-1.5c0.5-1,1-2.5,1-4.2v-5.7v-11.1v-2.7
		c0.2-6.4,0.5-9.8,0.5-9.8v-6.4l0.2-2.7l-0.2-5.7v-2.2c0-0.2-0.2-0.7-0.2-1.5c-1.2-0.5-3.4-1-6.4-1.2c-0.7,0-1.2,0-1.7-0.2v-4.2
		l14,0.5c1.7,0,2.7,0,3.2,0c2,0,4.9,0,9.1-0.5c2.5-0.2,3.9-0.2,4.4-0.2c0,0.7,0,1.2,0,1.5c0,0.5,0,1.2,0,2.2c-1.2,0.5-2.7,1-4.4,1.2
		c-1.7,0.5-3,0.7-4.2,1.2c-0.2,0.7-0.2,2-0.2,3.7c0,1.5,0,2.5,0.2,3.4c0,5.4-0.2,9.8-0.2,12.6v12.8L865,571l0.2,9.8l-0.2,1.7
		c0,0.2,0,0.7,0.2,1.2c2,0.5,3.7,0.7,5.4,1c0.2,0,1.2,0.2,3,0.5c0,1,0.2,1.7,0.2,2.5c0,0.2,0,1,0,1.7c-0.5,0-0.7,0-1,0
		c-1,0-1.7,0-1.7,0c-0.2,0-0.7,0-1.2-0.2c-0.5,0-2.7-0.2-6.4-0.7h-8.6c-1.7,0-4.2,0.2-7.4,0.5C844.3,588.9,842.8,588.9,842.3,589.2"
		/>
	<path class="st2" d="M918.4,527.4c0.2,1,0.5,2.7,1,4.9c0.5,3.4,0.5,5.9,0.5,7.9c0,0.5,0,1.2-0.2,2l-0.5,0.2l-3.4-0.5h-0.5
		c-1.5-4.4-3-7.1-4.2-8.6c-2.5-2.7-5.4-3.9-8.6-3.9c-3.2,0-5.7,0.7-7.6,2.5c-2,1.7-2.7,3.7-2.7,6.2c0,2,1,4.2,2.7,5.9
		c1.7,2,5.7,3.7,11.6,5.4c2,0.5,4.4,1.5,7.1,2.7c2.7,1.2,4.9,2.7,6.4,4.2c2,2,3.2,3.9,3.9,5.9c0.7,2,1.2,4.2,1.2,6.9
		c0,3-0.5,6.2-1.7,9.1c-0.5,1.5-1.7,3-3,4.4c-1,1-2.5,2.2-4.4,3.4c-2,1.2-4.2,2.2-6.4,3c-2.2,0.5-4.9,1-8.4,1c-2.2,0-4.9-0.2-8.1-1
		l-5.9-1.7c-1.7-0.5-2.7-0.7-3-1.2c-0.2-0.2-0.2-0.5-0.5-1v-0.5c0-0.2,0-2.5-0.2-6.6c0-2.2,0-3.7,0-4.4v-1.7h4.4
		c1.5,3.7,2.7,5.7,3,6.6c1,1.7,2.2,3,3.4,3.9c1.2,1,2.7,2,4.4,2.5c1.7,0.5,3.4,1,5.4,1c1.7,0,3.7-0.5,5.9-1c2-0.7,3.7-2,5.2-3.7
		c1.2-1.7,2-3.4,2-5.4c0-2.5-1.2-4.7-3.4-6.6c-1.5-1.2-4.9-3-11.1-5.2c-5.9-2.2-10.1-3.9-12.6-5.7c-2.2-1.7-4.2-3.9-5.4-6.6
		c-1.2-2.7-2-5.4-2-8.1c0-5.2,2-9.6,5.7-13.3s9.1-5.4,16.5-5.4c1.5,0,3.9,0.2,6.9,0.7C913,525.7,915.5,526.4,918.4,527.4"/>
	<path class="st2" d="M1098.4,527.4c0.2,1,0.7,2.7,1,4.9c0.5,3.4,0.5,5.9,0.5,7.9c0,0.5,0,1.2-0.2,2l-0.5,0.2l-3.4-0.2h-0.5
		c-1.5-4.4-3-7.1-4.2-8.6c-2.5-2.7-5.4-3.9-8.6-3.9s-5.7,0.7-7.6,2.5c-1.7,1.7-2.7,3.7-2.7,6.2c0,2,1,4.2,2.7,5.9
		c1.7,2,5.7,3.7,11.6,5.4c2,0.5,4.4,1.5,7.1,2.7c2.7,1.2,4.9,2.7,6.4,4.2c2,2,3.2,3.9,3.9,5.9c0.7,2,1,4.2,1,6.9
		c0,3-0.5,6.2-1.7,9.1c-0.5,1.5-1.7,3-3,4.4c-1,1-2.5,2.2-4.4,3.4c-2,1.2-4.2,2.2-6.4,3c-2.2,0.5-4.9,1-8.4,1c-2.2,0-4.9-0.2-8.1-1
		l-5.9-1.7c-1.7-0.5-2.7-0.7-3.2-1.2c-0.2-0.2-0.2-0.5-0.5-1v-0.5c0-0.2,0-2.5-0.2-6.6c0-2.2,0-3.7,0-4.4v-1.7h4.4
		c1.5,3.7,2.5,5.7,3,6.6c1,1.7,2.2,3,3.2,3.9c1.2,1,2.7,2,4.4,2.5c1.7,0.5,3.4,1,5.4,1c1.7,0,3.7-0.5,5.9-1c2.2-0.7,3.7-2,5.2-3.7
		c1.2-1.7,2-3.4,2-5.4c0-2.5-1.2-4.7-3.4-6.6c-1.5-1.2-4.9-3-11.1-5.2c-5.9-2.2-10.1-3.9-12.6-5.7c-2.2-1.7-4.2-3.9-5.4-6.6
		c-1.2-2.7-2-5.4-2-8.1c0-5.2,1.7-9.6,5.7-13.3c3.7-3.7,9.1-5.4,16.5-5.4c1.5,0,3.9,0.2,6.9,0.7
		C1092.7,525.7,1095.2,526.4,1098.4,527.4"/>
	<path class="st2" d="M932.9,523.2h3c0.2,0.2,0.5,0.7,0.5,0.7c1,1.5,1.7,2.7,2,3.2c0.5,0,2.7,0.2,6.6,0.2c2.5,0,4.7,0,6.6,0l1-0.2
		h5.9h11.1h15l3-0.5c0.5-0.2,1-1,1.5-2.5c0-0.2,0.2-0.7,0.5-1.2h2.2c0.2,0,0.7,0,1.5,0c0,2.2,0,5.7,0,10.1v4.4v2.5
		c0,1,0,1.5-0.2,2.2c-1.2,0.5-2.5,0.7-3.4,0.7c-0.7-1.2-1.7-3.2-2.7-5.4c-1-2.5-1.7-3.7-2-3.9c-0.5-0.5-0.7-0.7-1.5-0.7
		c-0.7-0.2-4.2-0.2-10.3-0.2c-1,0-2,0-3.4,0.2c-0.2,1.2-0.2,2.2-0.2,3.2v6.6v14.3l0.2,15.5v6.4c0,2.2,0.2,3.9,0.5,5.2
		c0.5,0.2,1.5,0.5,3,0.7c0.2,0,1.5,0.2,3.7,0.7c1,0.2,1.7,0.5,2.5,0.7c0.2,1.2,0.2,2,0.2,2.2c0,0.2,0,0.7-0.2,1.2
		c-0.7,0-1.2,0-1.7,0c-3.4,0-6.2-0.2-8.6-0.2c-2.5-0.2-6.6-0.5-12.8-0.5c-1,0-3.9,0.2-8.6,0.5c-2,0.2-3,0.2-3.7,0.2
		c0-0.5,0-0.7,0-1.2v-1.2v-0.5c0.7-1,2-1.7,3.9-2.2c3.4-0.7,5.7-1.5,7.1-2.2c0.2-0.5,0.5-1.5,0.5-2.5c0.2-3.9,0.2-10.1,0.2-18.7
		l-0.2-18.5c0-5.2,0-8.1-0.2-9.1c0-0.2-0.2-0.5-0.2-0.7c-0.2-0.2-0.5-0.2-0.7-0.2c-1-0.2-4.2-0.2-9.8-0.2c-3,0-5.2,0.2-6.2,1
		c-1.5,0.7-3.4,3-6.4,6.6c-0.7,1-1.5,1.5-1.7,1.5c-1.5-0.7-2.5-1.5-3-2c1-2.2,2.5-6.4,4.2-12.8C932.4,525.2,932.7,523.9,932.9,523.2
		"/>
	<path class="st2" d="M987.3,588.9v-3.4c0.7-0.2,1.7-0.5,3.2-0.7c2.5-0.5,3.9-1,4.4-1.2c0.5-0.5,1.2-1.2,2-2.7l9.8-25.8l11.6-30.3h3
		h2.2l0.5,1l8.4,20.2c2,4.2,3.7,8.4,5.2,12.3c1.5,3.9,2.7,7.4,3.9,9.8c0.7,1.5,1.5,3.9,2.7,6.9c0.5,1.7,1.5,3.7,2.7,6.2
		c0.5,1.2,1.2,2.2,1.5,2.5c0.5,0.5,1.5,0.7,3,1c1.2,0.2,2.7,0.5,4.2,1.2c0.2,1,0.2,2,0.2,2.5c0,0.2,0,0.5,0,1
		c-2.5,0-5.2-0.2-7.9-0.2c-3-0.2-5.4-0.2-7.9-0.2c-2.5,0-4.4,0-5.7,0l-8.4,0.5h-2.5c0-1.2,0-2.2,0.2-3.2l5.4-1.2
		c1.7-0.5,2.5-0.7,3-1c0.2-0.2,0.5-0.7,0.5-1.2s0-0.7-0.2-1.2l-2-4.7l-3.7-9.6H1008c-0.7,1.5-2.2,5.4-4.2,11.3c-0.7,1.7-1,3-1,3.4
		c0,0.7,0.2,1.5,0.7,1.7c0.7,0.7,2.2,1,4.2,1.2c0.2,0,1.5,0.2,3.4,0.5c0,1.2,0,2,0,2.5s0,0.7,0,1.2c-2,0-6.9-0.2-14.5-0.7l-2,0.2
		c-2.5,0.5-4.7,0.5-6.9,0.5L987.3,588.9L987.3,588.9z M1010.2,561.6c7.6,0,12.1,0.2,13.5,0.2h1.2c-1-3-2.2-6.2-3.7-10.1
		s-3-6.9-3.9-8.9L1010.2,561.6z"/>
	<path class="st2" d="M148.7,529.6c0.5,2.5,0.5,5.2,0.5,7.6c0,0.5,0,1.2,0,2.2c-0.5,0-0.7,0.2-1,0.2c-0.2,0-0.5,0-0.7,0
		c-1.2-3.7-3.7-6.6-6.6-8.9c-3.2-2-6.9-3-11.6-3c-2.5,0-4.4,0.2-6.2,0.7c-3,1-5.4,2.5-7.6,4.2c-2.2,1.7-4.2,3.9-5.7,6.4
		c-1.5,2.5-2.7,5.4-3.7,8.9c-1,3.4-1.2,7.1-1.2,10.6c0,6.9,1,12.8,3.2,17.2c2.2,4.4,4.9,7.9,8.6,9.6c3.7,2,7.4,3,11.1,3h2.2
		c2.7-0.2,4.4-0.7,5.4-1c2.5-0.7,4.4-1.5,5.9-2.5c1.5-1,3-2.2,4.4-3.9s2.7-3.7,3.7-5.9l0.5-0.2c0.2,0,0.5,0,0.7,0.2
		c0,0.7,0,1.2,0,1.5c-1.5,5.4-2.5,9.4-3,11.3c-0.5,0.2-1.2,0.2-2,0.5c-3.7,1.2-8.9,2-15.3,2c-5.2,0-8.9-0.2-11.6-1
		c-2.5-0.7-5.4-1.7-8.4-3.2s-5.7-3.4-7.9-5.9c-2.2-2.5-4.2-5.4-5.4-9.4c-1.5-3.7-2-7.9-2-12.1c0-4.2,0.5-7.9,1.7-10.8
		c1-3.2,2.7-6.2,5.2-9.4c2.2-3.2,5.2-5.9,8.1-7.9c3.2-2.2,6.6-3.7,10.3-4.4c2.7-0.5,6.4-1,11.3-1c3.7,0,6.9,0.5,10.1,1.5
		C145.5,527.9,147.7,528.9,148.7,529.6"/>
	<path class="st2" d="M158.5,558.2c0-3.2,0.5-6.2,1.2-8.9c0.7-2.7,2.2-5.4,3.9-8.4c2-3,4.2-5.7,6.9-7.6s6.4-3.9,11.1-5.4
		c3.2-1,7.6-1.5,12.6-1.5c3.4,0,6.6,0.5,10.1,1.5c3.2,1,6.2,2.2,8.9,3.7c2.7,1.7,5.4,4.2,8.1,7.4c1.7,2.5,3.2,4.9,4.2,7.6
		c1.2,3.4,2,7.1,2,11.1c0,4.2-0.5,7.9-1.2,10.6c-0.7,3-2.2,5.7-4.2,8.4c-1.5,2.2-4.2,4.7-7.9,7.4c-2.5,2-5.7,3.4-9.1,4.4
		c-3.7,1.2-7.6,1.7-11.8,1.7c-4.2,0-8.1-0.5-11.6-1.5c-3.4-1-6.2-2.2-8.4-3.7c-2.2-1.5-4.7-3.4-6.9-6.4c-2.5-2.7-4.2-5.9-5.4-9.4
		C159,566,158.5,562.3,158.5,558.2 M192.2,588.4c2.7,0,5.7-0.5,8.6-1.2c3-0.7,5.4-2,7.9-3.7c2.2-1.7,4.2-3.7,5.4-6.2
		c1.2-2.2,2.2-5.2,3.2-8.6c0.7-3.4,1.2-7.1,1.2-10.6c0-4.4-0.7-8.9-2-13c-1-3.2-2.7-6.2-4.9-8.9c-2.2-2.7-4.9-4.7-8.1-5.9
		c-3.2-1.5-6.6-2.2-10.3-2.2c-3,0-5.9,0.5-8.6,1.5c-2.7,1-5.2,2.2-6.9,3.7s-3.4,3.7-5.2,6.4c-1.5,2.7-2.7,5.9-3.4,9.1
		c-0.7,3.4-1.2,6.4-1.2,8.9c0,2.7,0.5,5.7,1.2,9.1c0.7,3.4,2,6.4,3.2,8.9c1.5,2.5,3.2,4.7,5.2,6.6c2,2,4.4,3.4,6.9,4.4
		C186.6,587.9,189.3,588.4,192.2,588.4"/>
	<path class="st2" d="M231.9,589.7c0-0.5,0.2-1,0.5-1.2c2.5-0.7,4.9-1.2,7.4-1.5c1.5-0.2,2.7-0.5,3-1c0.2-0.5,0.5-2,0.5-4.7
		l0.2-12.8v-8.6v-11.3v-3c0-6.9,0-11.1,0-12.8c0-0.2-0.2-0.7-0.5-1.2c-1-0.5-1.5-0.7-2.2-0.7c-0.5-0.2-3.2-0.5-7.6-1.5
		c0-0.5,0-0.7,0-0.7c0-0.2,0-0.5,0-0.7c0.7,0,1.7,0,3,0l7.4,0.2h4.2h1.2c0.2,0,0.7,0,1.5,0c2,0,3,0,3.2,0l3.9-0.2
		c2.7,0,4.4,0,5.7,0.2c0,0.5,0,1.2-0.2,2c-0.5,0-2,0.2-5.2,0.2c-3,0-4.7,0.2-5.2,0.5c-0.7,0.5-1.2,1.7-1.2,3.9c0,0.5,0,1.5,0,3.2v3
		v9.1v3.2v16l-0.2,13.8v3c0,1,0.2,1.5,0.5,1.7c0.7,0,3.2,0,7.1,0h3.2l8.4-0.2c2.2,0,3.7-0.2,4.7-0.7c1-0.5,2.5-1.5,4.7-3.2
		c1.2-1.2,2.5-2.5,3.2-3.7c0.2-0.2,0.5-0.7,0.7-1.2c0.5-0.7,1.5-2.5,2.5-5.2h1.7c-0.2,1.2-0.5,2.2-0.7,3.2c-1,4.7-1.5,8.4-2,11.3
		c0,0.7,0,1.2-0.2,1.7l-18.2-0.5c-15.8,0-24.9,0.2-27.8,0.5c-1,0-2,0-3,0H231.9z"/>
	<path class="st2" d="M290.4,588.7c0.2-0.2,0.5-0.5,0.7-0.5c0.5-0.2,1.5-0.2,2.7-0.5c3.2-0.2,5.2-0.5,5.9-1c0.5-0.7,0.7-1.5,0.7-2.7
		v-3.4v-12.3v-5.9V550l-0.2-14c0-3.2-0.2-5.2-0.7-5.7c-0.5-0.7-2.2-1-5.2-1c-1.2,0-2.5-0.2-3.2-0.2c-0.5-0.2-0.7-0.5-0.7-1
		c0-0.2,0-0.5,0.2-1c0.2-0.2,0.5-0.2,0.7-0.2c0.5,0,1,0,1.7,0c2,0.2,3.9,0.2,5.9,0.2h3.7l8.6,0.2c4.2,0,7.6,0,10.1-0.2
		c2.5,0,3.9-0.2,4.9-0.2c0.7,0,2.7,0,5.7,0.2h6.9l0.7,0.2l3.9-0.2l0.5,0.2c0.2,0.2,0.2,0.5,0.2,0.7c0,0.5,0,1.2-0.2,2
		c-0.2,1-0.2,1.5-0.2,1.7c0,3.4,0,6.2,0.2,8.6c0,0.2,0,0.2-0.2,0.5c-0.2,0-0.7,0-1-0.2c-0.2-0.7-0.7-1.7-1.5-3.2
		c-0.5-1.5-1.5-3.4-2.7-5.4c-0.7-1.5-1.5-2.2-2-2.5c-0.5-0.2-1.5-0.5-3-0.5c-0.2,0-1.7,0-4.4,0c-0.7,0-1.5,0-2.2,0l-14,0.2h-0.5
		c-1.7,0-3,0.2-3.2,0.7c-0.5,0.7-0.7,3.2-0.7,6.9c0,0.5,0,4.2,0.2,11.8v6.9c0.2,0,0.7,0.2,1.2,0.2h0.7c0.5,0,1.5,0,2.5,0
		c1.7,0,2.7,0,3.4,0c0.5,0,0.7,0,1,0c3.4-0.2,8.1-0.2,13.5-0.2c1.7-0.2,2.7-0.7,3-1c0.5-0.5,0.7-2.2,1-4.7c0.2-2.5,0.7-3.9,1.7-4.2
		c0.5,0,0.7,0,1.2,0.2c0,0.2,0,0.5,0,0.7c0,0.2,0,0.5,0,1.2c-0.2,1.2-0.2,4.9-0.2,11.3c0,1.7,0,3.7,0.2,5.7c0.2,2,0.2,3.2,0.2,3.4
		c0,0.2,0,0.7-0.2,1.2c-0.2,0.2-0.5,0.2-0.5,0.2h-0.5c-0.5-1-1-2.2-1.5-4.2c-0.7-3.2-1.7-5.4-2.7-6.2c-1-0.7-2.5-1.2-4.4-1.2
		c-0.5,0-1.2,0-2.5,0c-1.2,0-3,0-5.4,0h-3.2c-4.4,0-7.4,0-8.9,0.2v1.7v9.1v5.7v5.4c0,3.4,0.2,5.2,0.7,5.7c0.5,0.7,1.7,1,3.7,1h3
		c0.2,0,1.2,0,3,0c1.7,0,3.9,0,6.6,0c6.2,0,10.3-0.2,12.6-0.7c2-0.5,3.7-1.5,5.2-3c1.2-1.5,3-4.4,5.2-8.9c0.7-1.2,1.2-2,2-2
		c0.2,0,0.7,0,1,0.5c-1,3.2-1.5,5.4-1.7,6.4c-0.2,2.2-0.5,4.7-0.7,6.9c0,1-0.2,2-0.7,2.7h-1.2l-13.8,0.2h-6.2l-14.5,0.2h-5.9
		c-0.7,0-1.5,0-2.2,0c-5.9,0.2-10.1,0.5-13,0.5c-0.5,0-0.7,0-1-0.2c-0.2-0.2-0.2-0.5-0.2-0.7L290.4,588.7z M316.1,520.7l6.2-8.6
		c1.7-2.5,3.4-4.4,5.2-5.4c0.7-0.5,1.5-0.7,2.2-0.7c1,0,1.5,0.2,2.2,0.7c0.5,0.5,0.7,1,0.7,1.7s-0.2,1.2-0.7,2
		c-0.5,0.7-1.5,1.5-3.2,2.7L317,521h-0.5L316.1,520.7z"/>
	<path class="st2" d="M418,530.1l0.5,7.4c0.2,2.2,0.2,3.7,0.2,4.7l-1.5,0.2c-2.2-4.9-4.9-8.6-8.1-11.1c-3.2-2.5-7.1-3.7-11.8-3.7
		c-5.7,0-10.1,0.7-13.3,2c-4.7,2-8.6,5.4-11.8,10.3c-3.2,4.9-4.9,10.8-4.9,17.7c0,3.9,0.5,7.6,1.7,10.8c1.2,3.2,3,6.2,5.2,8.9
		c2.2,2.7,4.7,5.2,7.9,7.1c2,1.2,4.2,2.5,6.9,3c1.5,0.2,3.7,0.5,6.9,0.5c2,0,4.2-0.2,6.4-0.7c2.5-0.5,4.2-1.2,5.4-2.2
		c1.2-1,2-2,2.5-3.2c0.5-1.2,0.7-3.4,0.7-6.9c0-5.7-0.5-8.9-1.2-9.8c-0.7-1-3.2-1.5-7.1-1.7l-2-0.2h-1.2c-0.2,0-0.5,0-0.7-0.2
		l-0.7-1.2c0-0.2,0-0.2,0.2-0.7c1.7-0.2,5.4-0.5,11.1-0.5c1.2,0,3.4,0,6.2,0l4.9,0.2h4.4c1,0,2,0,3.2,0c0.2,0,0.2,0,0.5,0.2
		c0,0,0,0.2,0,0.5c0,0.2,0,0.7-0.2,1.5c-1.5,0.2-2.5,0.5-3.2,0.5h-3.2c-1,0-2,0.2-2.7,1.2c-0.2,0.2-0.5,1.5-0.5,3.7v6.4
		c0,4.4-0.2,7.1-0.5,8.4c-0.2,0.7-0.5,1.2-1.2,2c-0.7,0.5-2,1.2-3.9,2c-2.7,1.2-5.4,2-7.6,2.2c-4.2,0.7-8.4,1.2-12.3,1.2
		c-6.4,0-11.8-0.7-15.8-2.5c-4.2-1.7-7.6-3.9-10.6-6.9c-3-3-5.2-5.9-6.4-8.9c-2-4.4-3-8.9-3-13.3c0-5.7,1.5-11.3,4.4-16.7
		s7.9-9.8,14.5-13.3c4.7-2.5,11.1-3.7,19.2-3.7c5.7,0,10.1,0.5,13.8,1.5C413,527.9,416,528.9,418,530.1"/>
	<path class="st2" d="M431.5,587.7c0.7-0.2,1.5-0.5,2.2-0.5c4.9-0.2,7.9-1,8.6-1.7c0.7-0.7,1-4.9,1-12.6v-5.2v-5.4l-0.2-5.7v-3.4
		v-3.7v-4.4v-2v-2.5c0-0.5,0-1.2,0-2c0-2,0-4.2-0.2-6.4c0-0.5-0.2-1-0.5-1.2c-1.2-0.7-3.2-1-5.9-1.2c-2.7-0.2-4.2-0.5-4.7-0.7
		c-0.2-0.2-0.5-0.7-0.5-1.5h4.2l13,0.2c3.2,0,7.6,0,13.3-0.2c0,0.5,0,1,0,1.5c-0.7,0.2-1.7,0.2-3.2,0.5c-3.2,0.2-4.9,0.7-5.7,1
		c-0.5,0.2-0.7,0.5-1,0.7c-0.2,0.5-0.5,1.7-0.5,3.2l-0.2,6.4l0.2,21.7v8.6c0,2.7,0,4.4,0,5.4c0,3.7,0,5.9,0.2,6.9
		c0.2,1,0.5,1.7,1,2.2s1.2,0.7,2.2,1c1.5,0.2,2.7,0.5,3.4,0.5c1.7,0,3,0.2,3.4,0.7c0,0.5,0.2,0.7,0.2,1v0.5c-3,0-5.2,0.2-6.6,0.2
		c-0.7,0-2.2,0-4.4-0.2h-6.6h-11.6h-1L431.5,587.7z"/>
	<path class="st2" d="M468.9,558.2c0-3.2,0.5-6.2,1.2-8.9c0.7-2.7,2.2-5.4,3.9-8.4c2-3,4.2-5.7,6.9-7.6c2.7-2,6.4-3.9,11.1-5.4
		c3.2-1,7.4-1.5,12.6-1.5c3.4,0,6.6,0.5,10.1,1.5c3.2,1,6.2,2.2,8.9,3.7c2.7,1.7,5.4,4.2,8.1,7.4c2,2.5,3.2,4.9,4.2,7.6
		c1.2,3.4,1.7,7.1,1.7,11.1c0,4.2-0.5,7.9-1.2,10.6c-0.7,3-2.2,5.7-4.2,8.4c-1.5,2.2-4.2,4.7-7.9,7.4c-2.5,2-5.7,3.4-9.1,4.4
		c-3.7,1.2-7.6,1.7-11.8,1.7c-4.4,0-8.1-0.5-11.6-1.5c-3.4-1-6.2-2.2-8.4-3.7s-4.7-3.4-6.9-6.4c-2.5-2.7-4.2-5.9-5.4-9.4
		C469.4,566,468.9,562.3,468.9,558.2 M502.6,588.4c2.7,0,5.7-0.5,8.6-1.2c3-0.7,5.4-2,7.9-3.7c2.2-1.7,3.9-3.7,5.4-6.2
		c1.2-2.2,2.2-5.2,3.2-8.6c0.7-3.4,1.2-7.1,1.2-10.6c0-4.4-0.7-8.9-2-13c-1-3.2-2.7-6.2-4.9-8.9c-2.2-2.7-4.9-4.7-8.1-5.9
		c-3.2-1.5-6.6-2.2-10.3-2.2c-3,0-5.9,0.5-8.6,1.5c-3,1-5.2,2.2-6.9,3.7c-1.7,1.5-3.4,3.7-5.2,6.4c-1.5,2.7-2.7,5.9-3.7,9.1
		c-0.7,3.4-1.2,6.4-1.2,8.9c0,2.7,0.5,5.7,1.2,9.1c0.7,3.4,2,6.4,3.4,8.9c1.5,2.5,3.2,4.7,5.2,6.6c2,2,4.4,3.4,6.9,4.4
		C497,587.9,499.7,588.4,502.6,588.4"/>
	<path class="st3" d="M579.4,529.4c0.2,2.2,0.5,3.4,0.5,3.7l-0.2,4.4c0,1.7-0.2,3-0.2,3.4c-0.2,0.2-0.5,0.2-0.7,0.2h-0.5
		c-1-4.4-2.7-7.9-5.2-9.8c-2.5-2-5.4-3.2-9.1-3.2s-6.6,1-9.1,3.2c-2.5,2-3.4,4.4-3.4,7.1c0,2.2,0.7,3.9,2.5,5.7
		c1.7,1.7,5.9,4.4,12.6,7.9c5.2,2.7,8.9,4.9,11.1,6.6c2.2,1.7,3.9,3.7,4.9,5.9c1.2,2.2,1.7,4.7,1.7,7.4c0,3.4-1,6.6-2.7,9.8
		c-1.7,3-4.2,5.4-7.1,6.9c-3,1.5-7.1,2.2-12.1,2.2c-4.4,0-8.6-0.7-12.6-2.2c-2.5-0.7-3.7-1.5-4.2-2c-0.5-0.5-0.7-1-0.7-1.7
		c0-0.2,0-0.7,0-1.2c0.5-3.7,0.7-6.9,0.7-9.4c0-1.5,0.2-2.5,0.2-2.7c0.2-0.2,0.2-0.2,0.7-0.2c0.2,0,0.5,0,0.7,0.2
		c0.2,0.2,0.2,0.5,0.5,1.2c0.2,3.9,2.2,7.6,5.4,10.6c3.2,3.2,6.9,4.7,11.1,4.7c2.5,0,4.9-0.5,7.1-1.5c2.2-1,3.9-2.7,4.9-4.7
		c1.2-2,1.7-3.9,1.7-5.9c0-2.7-1-4.9-2.7-7.1s-5.4-4.7-11.1-7.6c-5.7-3-9.1-4.9-10.8-6.4c-2.7-2.2-4.7-4.4-6.2-6.9
		c-1-2-1.5-3.9-1.5-6.6c0-4.4,1.7-8.4,5.4-11.3c3.4-3.2,8.4-4.7,14.3-4.7c3.2,0,6.2,0.5,8.6,1.2C576,527.1,577.7,528.1,579.4,529.4"
		/>
</g>
</svg>
